<svg width="96" height="96" viewBox="0 0 96 96" fill="none" xmlns="http://www.w3.org/2000/svg">
<path d="M42.8085 29.8001C42.0131 29.7506 41.3977 29.334 41.267 28.4916C41.1384 27.6611 41.8457 27.1301 42.2752 26.5238C43.1608 25.2735 43.6085 23.4476 43.4111 21.9156C43.1004 19.5049 41.3248 17.6913 40.0333 15.7541C37.4066 11.8143 37.6462 8.13956 39.812 3.97953C40.2725 3.09474 40.7876 1.86404 41.8965 1.70071C42.8899 1.74612 43.7107 2.46791 43.4272 3.55419L43.4115 3.60939C43.2538 4.17521 42.9155 4.68828 42.639 5.20293C41.5667 7.19733 40.7188 9.26968 41.3162 11.5597C42.291 15.2955 45.893 17.1912 46.4293 21.8059C46.6744 23.9143 45.3628 29.4947 42.8085 29.8001ZM51.8119 29.7795C50.2738 29.7578 49.5829 28.3922 50.6259 27.1346C53.5775 23.5761 52.9093 20.8076 50.7157 17.0459C49.9871 15.7966 48.3343 13.1429 50.8511 12.6705C52.3425 12.6116 52.6025 14.2403 53.15 15.2952C54.0838 17.0945 55.2058 18.7543 55.503 20.8078C55.8853 23.4491 54.9343 26.2892 53.5054 28.4736C53.0572 29.1587 52.6382 29.6065 51.8119 29.7795ZM30.8927 29.8661C30.1093 29.8748 29.4885 29.494 29.2571 28.7081C28.94 27.6311 30.0872 26.8594 30.5572 26.0104C32.6014 22.3191 31.7233 20.3869 29.8427 17.1158C29.0872 15.8017 27.4354 13.2916 29.9473 12.7108C31.3708 12.6265 31.6961 14.2688 32.228 15.2773C33.6994 18.0663 35.0739 20.3721 34.5949 23.6509C34.3541 25.2992 32.7577 29.4023 30.8927 29.8661ZM64.5114 93.5833C63.761 93.8651 62.9533 94.1544 62.1435 94.1668L23.6111 94.1676C21.1639 94.1665 20.72 93.7748 18.4189 92.8954C16.7135 92.2436 14.9622 91.6776 13.1484 91.4246C10.4386 91.047 7.69052 91.0954 5.02266 90.3919C0.143585 89.1055 0.905632 85.3001 5.23022 83.5813C8.96471 82.0971 12.8482 82.255 16.7824 82.2553L23.4935 82.257C23.1819 82.093 21.9868 80.5959 21.6984 80.25C13.959 70.9613 9.10751 61.3699 7.16417 49.2296L6.60441 44.4655C6.52588 43.5445 6.44477 42.6632 6.43706 41.7358L6.42548 39.555C6.42002 37.2439 6.94952 36.8556 9.22037 35.9005C11.7004 34.8574 14.288 34.4408 16.938 34.0973L23.4459 33.4459L29.6632 33.2419C30.1018 33.2321 30.5297 33.1343 30.9609 33.1213L35.1337 33.1105L53.1812 33.1273C53.5706 33.1416 53.9479 33.2261 54.3339 33.2423L56.9207 33.2702C57.9542 33.2878 59.0175 33.3878 60.0729 33.4298L66.5584 33.9459C69.2649 34.2615 76.8641 35.0803 78.1275 38.047L78.3812 37.9828C86.1735 36.1729 92.6389 42.9411 92.6484 50.4073C92.6582 58.0607 85.6712 66.5837 79.664 71.1538C76.1717 73.8109 71.843 75.8833 67.4612 76.3281C67.0505 76.3697 66.0634 76.1972 65.8097 76.507L61.5874 81.4614C61.3554 81.7121 61.1767 82.0181 60.9088 82.2218L69.1678 82.2548C70.7861 82.255 72.4517 82.1741 74.0614 82.3315C76.1809 82.5386 82.5285 83.7396 83.4394 86.0492C83.7274 86.7795 83.6126 87.949 83.2918 88.6641C82.7812 89.8024 81.809 89.9456 80.7174 90.2336C79.5727 90.5355 78.467 90.8102 77.2882 90.9542C75.2087 91.2079 73.1019 91.2158 71.039 91.6191C68.807 92.0556 66.6347 92.7782 64.5114 93.5833ZM36.8953 36.0368L32.4844 36.0443C32.1712 36.0516 31.8615 36.111 31.5478 36.124L23.1737 36.4114L19.538 36.7703C17.342 37.0116 15.1103 37.2887 12.9508 37.7623L9.74124 38.6316L14.1225 39.4294C16.8856 39.8303 19.6689 40.0382 22.4531 40.2068L29.4844 40.4156C29.8826 40.4321 30.2707 40.5478 30.6797 40.5608L47.5194 40.579L52.9419 40.5662C53.3994 40.5544 53.8436 40.432 54.3054 40.4198L65.8389 39.8946L71.5091 39.3165C72.5756 39.1635 73.655 39.0175 74.6726 38.6518C72.0954 37.7183 69.4719 37.3328 66.7616 37.0095L59.889 36.3782L52.5 36.1375C52.077 36.1196 51.6609 36.0566 51.2351 36.0482L39.4241 36.0358C38.5892 36.0358 37.7274 35.9914 36.8953 36.0368ZM80.5594 40.6605L78.2366 40.9427L78.0904 43.7306C81.9744 42.5884 85.7569 43.7228 86.9374 47.9134L87.1685 48.8891C88.4715 55.3429 82.095 61.9913 77.7932 65.9528C75.3746 68.1799 74.459 69.2603 71.1562 69.2415C70.382 69.2372 70.5613 69.4785 70.185 70.0598C69.5681 71.0125 68.924 71.9336 68.2149 72.8201L68.1094 73.0789C68.9231 73.0058 69.7835 72.7376 70.5665 72.5079C75.8252 70.9654 80.3642 67.0933 83.8382 62.9342C86.9171 59.2483 90.0377 54.4675 89.5875 49.4604C89.1802 44.9297 85.434 40.2868 80.5594 40.6605ZM9.44661 41.4715L9.49626 43.681C10.0188 53.0886 13.3738 62.8346 18.3915 70.7319L20.2571 73.5908C21.1575 74.8648 26.7437 82.2664 27.9347 82.2641L56.6454 82.2476C56.9919 82.2379 57.0572 81.9249 57.2578 81.708C60.3452 78.3696 63.3373 74.9668 65.8744 71.1823C70.7842 63.7817 73.7422 56.6706 74.8247 47.6839L75.1817 41.7538L71.0374 42.3647L60.1595 43.2409L58.1015 43.2941C57.8186 43.3082 57.5407 43.3654 57.257 43.3759L55.0202 43.396C54.5694 43.4093 54.1327 43.5203 53.6745 43.5302L30.0703 43.5319C29.6668 43.5176 29.2706 43.4102 28.8589 43.3999L26.172 43.3826C25.8442 43.3703 25.5217 43.3183 25.1953 43.2966L21.422 43.0939C17.6458 42.8935 13.0806 42.6585 9.44661 41.4715ZM80.2766 46.2371C79.5995 46.3003 78.554 46.474 78.0977 47.0303L78.0555 47.086C77.9154 47.2873 77.8805 47.6185 77.835 47.8586L76.4962 55.0571C75.53 58.9155 74.057 62.4855 72.3658 66.0739C73.3909 65.7821 74.1472 65.1883 74.9503 64.5126C78.3988 61.5746 83.9265 55.8955 84.3019 51.0139C84.4779 48.7243 83.4345 46.4012 80.9175 46.2278L80.2766 46.2371ZM16.0584 85.209C13.027 85.2113 7.34764 85.0301 4.89255 87.1963C5.66631 87.6555 6.81261 87.7515 7.69581 87.8698L12.1325 88.3637C14.8874 88.7016 17.3706 89.3511 19.9787 90.2951L21.7466 90.976C22.5461 91.2439 23.2309 91.1854 24.0718 91.1856L59.7744 91.1906C60.6769 91.192 61.7557 91.3091 62.6276 91.0903L67.7516 89.3719C69.5357 88.908 71.2931 88.573 73.1235 88.3523L77.0591 87.9441C78.2008 87.8205 79.46 87.6761 80.5279 87.2374C77.172 85.3989 74.0754 85.2165 70.3213 85.2096L19.2118 85.2085C18.1762 85.2083 17.0894 85.1387 16.0584 85.209Z" fill="black"/>
<path d="M66.6116 60.2586C64.7764 60.1539 64.9092 58.7363 65.4743 57.3881L65.9719 56.0233C66.5571 54.2207 66.9788 52.3493 67.3043 50.4827C67.5542 49.05 67.3735 46.7522 69.1776 46.3731C69.8351 46.3434 70.4831 46.7888 70.6406 47.4444L70.6967 47.7041C70.7734 48.3497 70.5893 49.1918 70.491 49.8334C70.1955 51.7622 68.9918 58.2758 67.7066 59.8009C67.3875 60.1794 67.0751 60.2289 66.6116 60.2586Z" fill="black"/>
</svg>
